<svg xmlns="http://www.w3.org/2000/svg" width="586" height="15" viewBox="0 0 586 15"><g><g clip-path="url(#clip-10717)" opacity=".3"><path fill="#fff" d="M15 0l10 19H10L0 0zm31 0l10 19H41L31 0zm30 0l10 19H71L61 0zm31 0l10 19h-15L92 0zm30 0l10 19h-15L122 0zm31 0l10 19h-15L153 0zm30 0l10 19h-15L183 0zm31 0l10 19h-15L214 0zm32 0l10 19h-15L246 0zm31 0l10 19h-15L277 0zm30 0l10 19h-15L307 0zm31 0l10 19h-15L338 0zm30 0l10 19h-15L368 0zm31 0l10 19h-15L399 0zm30 0l10 19h-15L429 0zm31 0l10 19h-15L460 0zm31 0l10 19h-15L491 0zm31 0l10 19h-15L522 0zm30 0l10 19h-15L552 0zm31 0l10 19h-15L583 0zm30 0l10 19h-15L613 0zm31 0l10 19h-15L644 0zm30 0l10 19h-15L674 0zm31 0l10 19h-15L705 0zm32 0l10 19h-15L737 0zm31 0l10 19h-15L768 0zm30 0l10 19h-15L798 0zm185 0l10 19h-15L983 0zm31 0l10 19h-15l-10-19zm31 0l10 19h-15l-10-19zm32 0l10 19h-15l-10-19zM844 0l10 19h-15L829 0zm30 0l10 19h-15L859 0zm31 0l10 19h-15L890 0zm30 0l10 19h-15L920 0zm31 0l10 19h-15L951 0z"/></g></g></svg>